<svg width="170" height="170" viewBox="0 0 170 170" fill="none" xmlns="http://www.w3.org/2000/svg">
<circle opacity="0.04" cx="85" cy="85" r="85" fill="#1814F3"/>
<path d="M17 52.5C17.8284 52.5 18.5 51.8284 18.5 51C18.5 50.1716 17.8284 49.5 17 49.5C16.1716 49.5 15.5 50.1716 15.5 51C15.5 51.8284 16.1716 52.5 17 52.5Z" fill="#D1D5DB"/>
<path d="M27 44C27.5523 44 28 43.5523 28 43C28 42.4477 27.5523 42 27 42C26.4477 42 26 42.4477 26 43C26 43.5523 26.4477 44 27 44Z" fill="#D1D5DB"/>
<path d="M32 46L33 48L35 49L33 50L32 52L31 50L29 49L31 48L32 46Z" fill="#D1D5DB"/>
<path d="M144 50.5C144.828 50.5 145.5 49.8284 145.5 49C145.5 48.1716 144.828 47.5 144 47.5C143.172 47.5 142.5 48.1716 142.5 49C142.5 49.8284 143.172 50.5 144 50.5Z" fill="#D1D5DB"/>
<path d="M152 56L153 58L155 59L153 60L152 62L151 60L149 59L151 58L152 56Z" fill="#D1D5DB"/>
<path d="M22 116L23 118L25 119L23 120L22 122L21 120L19 119L21 118L22 116Z" fill="#D1D5DB"/>
<path d="M30 124.5C30.8284 124.5 31.5 123.828 31.5 123C31.5 122.172 30.8284 121.5 30 121.5C29.1716 121.5 28.5 122.172 28.5 123C28.5 123.828 29.1716 124.5 30 124.5Z" fill="#D1D5DB"/>
<path d="M142 120.5C142.828 120.5 143.5 119.828 143.5 119C143.5 118.172 142.828 117.5 142 117.5C141.172 117.5 140.5 118.172 140.5 119C140.5 119.828 141.172 120.5 142 120.5Z" fill="#D1D5DB"/>
<path d="M150 127C150.552 127 151 126.552 151 126C151 125.448 150.552 125 150 125C149.448 125 149 125.448 149 126C149 126.552 149.448 127 150 127Z" fill="#D1D5DB"/>
<path d="M35 46H65C65 46 69 46 71 50L75 56H35C33 56 31 54 31 52V50C31 48 33 46 35 46Z" fill="#E5E7EB"/>
<path d="M95 56H39C34.5817 56 31 59.5817 31 64V100C31 104.418 34.5817 108 39 108H95C99.4183 108 103 104.418 103 100V64C103 59.5817 99.4183 56 95 56Z" fill="#F3F4F6" stroke="#D1D5DB" stroke-width="2"/>
<path d="M97 76C98.1046 76 99 75.1046 99 74C99 72.8954 98.1046 72 97 72C95.8954 72 95 72.8954 95 74C95 75.1046 95.8954 76 97 76Z" fill="#D1D5DB"/>
<path d="M55 61H85C85 61 89 61 91 65L95 71H55C53 71 51 69 51 67V65C51 63 53 61 55 61Z" fill="#E5E7EB"/>
<path d="M115 71H59C54.5817 71 51 74.5817 51 79V115C51 119.418 54.5817 123 59 123H115C119.418 123 123 119.418 123 115V79C123 74.5817 119.418 71 115 71Z" fill="white" stroke="#D1D5DB" stroke-width="2"/>
<path d="M117 91C118.105 91 119 90.1046 119 89C119 87.8954 118.105 87 117 87C115.895 87 115 87.8954 115 89C115 90.1046 115.895 91 117 91Z" fill="#D1D5DB"/>
<path d="M117 113C133.569 113 147 99.5685 147 83C147 66.4315 133.569 53 117 53C100.431 53 87 66.4315 87 83C87 99.5685 100.431 113 117 113Z" fill="#BFDBFE"/>
<path d="M115 93C121.627 93 127 87.6274 127 81C127 74.3726 121.627 69 115 69C108.373 69 103 74.3726 103 81C103 87.6274 108.373 93 115 93Z" stroke="white" stroke-width="3.5" stroke-linecap="round"/>
<path d="M109 77H121" stroke="white" stroke-width="2.5" stroke-linecap="round"/>
<path d="M109 81H121" stroke="white" stroke-width="2.5" stroke-linecap="round"/>
<path d="M109 85H121" stroke="white" stroke-width="2.5" stroke-linecap="round"/>
<path d="M123.5 89.5L131 97" stroke="white" stroke-width="3.5" stroke-linecap="round"/>
</svg>
